<?xml version="1.0" encoding="utf-8"?>
<!-- Generator: Adobe Illustrator 21.1.0, SVG Export Plug-In . SVG Version: 6.00 Build 0)  -->
<svg version="1.1" id="Layer_1" xmlns="http://www.w3.org/2000/svg" xmlns:xlink="http://www.w3.org/1999/xlink" x="0px" y="0px"
	 viewBox="0 0 32 32" style="enable-background:new 0 0 32 32;" xml:space="preserve">
<style type="text/css">
	.st0{fill:#949494;}
</style>
<g id="OUTLINE_copy">
	<path class="st0" d="M13.9,24.1h3.4V16h2.2l0.3-2.8h-2.5l0-1.4c0-0.7,0.1-1.1,1.1-1.1h1.4V7.9h-2.2c-2.7,0-3.6,1.4-3.6,3.6v1.7
		h-1.7V16h1.7L13.9,24.1z"/>
	<g>
		<g id="Shopping_10_122_">
			<g>
				<g>
					<g>
						<g>
							<path class="st0" d="M16,1c8.3,0,15,6.7,15,15s-6.7,15-15,15S1,24.3,1,16S7.7,1,16,1 M16,0C7.2,0,0,7.2,0,16s7.2,16,16,16
								s16-7.2,16-16S24.8,0,16,0L16,0z"/>
						</g>
					</g>
				</g>
			</g>
		</g>
	</g>
</g>
</svg>
