<?xml version="1.0" encoding="utf-8"?>
<!-- Generator: Adobe Illustrator 21.1.0, SVG Export Plug-In . SVG Version: 6.00 Build 0)  -->
<svg version="1.1" id="Layer_1" xmlns="http://www.w3.org/2000/svg" xmlns:xlink="http://www.w3.org/1999/xlink" x="0px" y="0px"
	 viewBox="0 0 32 32" style="enable-background:new 0 0 32 32;" xml:space="preserve">
<style type="text/css">
	.st0{fill:#949494;}
</style>
<g id="OUTLINE_copy">
	<g>
		<g id="Shopping_10_116_">
			<g>
				<g>
					<g>
						<g>
							<path class="st0" d="M16,1c8.3,0,15,6.7,15,15s-6.7,15-15,15S1,24.3,1,16S7.7,1,16,1 M16,0C7.2,0,0,7.2,0,16s7.2,16,16,16
								s16-7.2,16-16S24.8,0,16,0L16,0z"/>
						</g>
					</g>
				</g>
			</g>
		</g>
	</g>
</g>
<g>
	<path class="st0" d="M20.3,16.9l0.2,0.2c0.9,0.9,0.9,2.4,0,3.4c-0.8,0.8-1.9,0.9-2.8,0.4c-0.1,0-0.1-0.1-0.2-0.1c0,0-0.1,0-0.1-0.1
		c0,0,0,0-0.1-0.1c-0.1,0-0.1-0.1-0.2-0.1l-0.2-0.2l-1.9-1.9c-0.5-0.5-0.7-1.1-0.7-1.8c0,0,0,0,0-0.1c0-0.1,0-0.1,0-0.2c0,0,0,0,0,0
		c0-0.1,0-0.1,0-0.2c0,0,0,0,0,0c0-0.1,0-0.1,0.1-0.2c0,0,0,0,0,0c0-0.1,0.1-0.1,0.1-0.2c0,0,0,0,0,0c0-0.1,0.1-0.1,0.1-0.2l0,0
		c0.1-0.1,0.2-0.3,0.3-0.4c0,0,0-0.1,0.1-0.1c0.2-0.2,0.5-0.4,0.8-0.5L14.3,13c-0.2,0.2-0.5,0.4-0.7,0.6c-0.1,0.1-0.1,0.1-0.2,0.2
		c0,0-0.1,0.1-0.1,0.1c0,0,0,0.1-0.1,0.1c0,0-0.1,0.1-0.1,0.1c0,0,0,0,0,0c0,0.1-0.1,0.1-0.1,0.2c0,0,0,0,0,0c0,0.1-0.1,0.1-0.1,0.2
		c0,0,0.1,0,0.1,0c-0.1,0.2-0.2,0.4-0.2,0.6v0c-0.9,1.6-0.4,3.6,0.9,4.9l0.4,0.4l1.7,1.7c0.1,0.1,0.1,0.1,0.2,0.2c0,0,0,0,0,0
		c1.8,1.5,4.4,1.4,6.1-0.2c1.8-1.8,1.8-4.6,0-6.4l-1.7-1.7C20.6,14.9,20.6,16,20.3,16.9z"/>
	<path class="st0" d="M11.7,15.1l-0.2-0.2c-0.9-0.9-0.9-2.4,0-3.4c0.8-0.8,1.9-0.9,2.8-0.4c0.1,0,0.1,0.1,0.2,0.1c0,0,0.1,0,0.1,0.1
		c0,0,0,0,0.1,0.1c0.1,0,0.1,0.1,0.2,0.1l0.2,0.2l1.9,1.9c0.5,0.5,0.7,1.1,0.7,1.8c0,0,0,0,0,0.1c0,0.1,0,0.1,0,0.2c0,0,0,0,0,0
		c0,0.1,0,0.1,0,0.2c0,0,0,0,0,0c0,0.1,0,0.1-0.1,0.2c0,0,0,0,0,0c0,0.1-0.1,0.1-0.1,0.2c0,0,0,0,0,0c0,0.1-0.1,0.2-0.1,0.2
		c0,0,0,0,0,0c-0.1,0.3-0.2,0.3-0.3,0.4c0,0,0,0.1-0.1,0.1c-0.2,0.2-0.5,0.4-0.8,0.5l1.6,1.6c0.2-0.2,0.5-0.4,0.7-0.6
		c0.1-0.1,0.1-0.1,0.2-0.2c0,0,0.1-0.1,0.1-0.1c0,0,0-0.1,0.1-0.1c0,0,0.1-0.1,0.1-0.1c0,0,0,0,0,0c0-0.1,0.1-0.1,0.1-0.2
		c0,0,0,0,0,0c0-0.1,0.1-0.1,0.1-0.2c0,0-0.1,0-0.1,0c0.1-0.2,0.2-0.4,0.2-0.6v0c0.9-1.6,0.4-3.6-0.9-4.9L18,11.7l-1.7-1.7
		c-0.1-0.1-0.1-0.1-0.2-0.2c0,0,0,0,0,0c-1.8-1.5-4.4-1.4-6.1,0.2c-1.8,1.8-1.8,4.6,0,6.4l1.7,1.7C11.4,17.1,11.4,16,11.7,15.1z"/>
</g>
</svg>
