<?xml version="1.0" encoding="utf-8"?>
<!-- Generator: Adobe Illustrator 21.1.0, SVG Export Plug-In . SVG Version: 6.00 Build 0)  -->
<svg version="1.1" id="Layer_1" xmlns="http://www.w3.org/2000/svg" xmlns:xlink="http://www.w3.org/1999/xlink" x="0px" y="0px"
	 viewBox="0 0 32 32" style="enable-background:new 0 0 32 32;" xml:space="preserve">
<style type="text/css">
	.st0{fill:#949494;}
</style>
<g id="OUTLINE_copy">
	<path class="st0" d="M23.2,21.9v-5.4c0-2.9-1.5-4.2-3.6-4.2c-1.6,0-2.4,0.9-2.8,1.5v-1.3h-3.1c0,0.9,0,9.3,0,9.3h3.1v-5.2
		c0-0.3,0-0.6,0.1-0.8c0.2-0.6,0.7-1.1,1.6-1.1c1.1,0,1.6,0.9,1.6,2.1v5L23.2,21.9L23.2,21.9z M10.5,11.3c1.1,0,1.8-0.7,1.8-1.6
		c0-0.9-0.7-1.6-1.7-1.6S8.8,8.8,8.8,9.7C8.8,10.6,9.4,11.3,10.5,11.3L10.5,11.3z M12,21.9v-9.3H8.9v9.3H12z"/>
	<g>
		<g id="Shopping_10_116_">
			<g>
				<g>
					<g>
						<g>
							<path class="st0" d="M16,1c8.3,0,15,6.7,15,15s-6.7,15-15,15S1,24.3,1,16S7.7,1,16,1 M16,0C7.2,0,0,7.2,0,16s7.2,16,16,16
								s16-7.2,16-16S24.8,0,16,0L16,0z"/>
						</g>
					</g>
				</g>
			</g>
		</g>
	</g>
</g>
</svg>
