<?xml version="1.0" encoding="utf-8"?>
<!-- Generator: Adobe Illustrator 21.1.0, SVG Export Plug-In . SVG Version: 6.00 Build 0)  -->
<svg version="1.1" id="Layer_1" xmlns="http://www.w3.org/2000/svg" xmlns:xlink="http://www.w3.org/1999/xlink" x="0px" y="0px"
	 viewBox="0 0 32 32" style="enable-background:new 0 0 32 32;" xml:space="preserve">
<style type="text/css">
	.st0{fill:#949494;}
</style>
<g id="OUTLINE_copy">
	<path class="st0" d="M18,9.6c-1.4,0.5-2.3,1.9-2.2,3.4l0,0.6l-0.6-0.1c-2.1-0.3-3.9-1.2-5.5-2.7L9,10l-0.2,0.6
		c-0.4,1.2-0.1,2.6,0.7,3.4c0.5,0.5,0.4,0.6-0.4,0.3c-0.3-0.1-0.5-0.2-0.5-0.1c-0.1,0.1,0.2,1.1,0.4,1.6c0.3,0.6,0.9,1.2,1.6,1.5
		l0.6,0.3l-0.7,0c-0.6,0-0.7,0-0.6,0.3c0.2,0.8,1.1,1.6,2.2,1.9l0.7,0.2l-0.6,0.4c-0.9,0.5-2,0.8-3.1,0.9c-0.5,0-0.9,0.1-0.9,0.1
		c0,0.1,1.4,0.8,2.2,1c2.5,0.8,5.4,0.4,7.6-0.9c1.6-0.9,3.1-2.7,3.8-4.5c0.4-0.9,0.8-2.7,0.8-3.5c0-0.5,0-0.6,0.7-1.2
		c0.4-0.4,0.7-0.8,0.8-0.9c0.1-0.2,0.1-0.2-0.5,0c-1,0.3-1.1,0.3-0.6-0.2c0.4-0.4,0.8-1,0.8-1.2c0,0-0.2,0-0.4,0.1
		c-0.2,0.1-0.7,0.3-1,0.4l-0.6,0.2L21,10c-0.3-0.2-0.7-0.4-1-0.5C19.4,9.4,18.5,9.4,18,9.6z"/>
	<g>
		<g id="Shopping_10_117_">
			<g>
				<g>
					<g>
						<g>
							<path class="st0" d="M16,1c8.3,0,15,6.7,15,15s-6.7,15-15,15S1,24.3,1,16S7.7,1,16,1 M16,0C7.2,0,0,7.2,0,16s7.2,16,16,16
								s16-7.2,16-16S24.8,0,16,0L16,0z"/>
						</g>
					</g>
				</g>
			</g>
		</g>
	</g>
</g>
</svg>
