<svg xmlns="http://www.w3.org/2000/svg" viewBox="0 0 32 32">
	
	<title>tw2</title>
	<path d="M18,9.56a3.33,3.33,0,0,0-2.24,3.35l0,.57-.58-.07a9.36,9.36,0,0,1-5.48-2.7L9,10l-.2.56A3.36,3.36,0,0,0,9.51,14c.46.49.36.56-.44.27a1.36,1.36,0,0,0-.54-.13,4.19,4.19,0,0,0,.41,1.56,3.72,3.72,0,0,0,1.58,1.49l.56.27h-.67c-.64,0-.67,0-.6.26A3.48,3.48,0,0,0,12,19.6l.71.24-.62.37A6.46,6.46,0,0,1,9,21.07a3.41,3.41,0,0,0-.94.09,8.82,8.82,0,0,0,2.22,1,9.72,9.72,0,0,0,7.55-.86,10.12,10.12,0,0,0,3.83-4.52,12,12,0,0,0,.78-3.49c0-.54,0-.6.68-1.24a7.5,7.5,0,0,0,.81-.9c.11-.22.1-.22-.48,0-1,.35-1.12.3-.63-.22a3.39,3.39,0,0,0,.78-1.24s-.17,0-.37.13a6.35,6.35,0,0,1-1,.4l-.62.2L21,10a4.72,4.72,0,0,0-1-.51A3.94,3.94,0,0,0,18,9.56Z" style="fill:#3f3f3f"/><path d="M16,1A15,15,0,1,1,1,16,15,15,0,0,1,16,1m0-1A16,16,0,1,0,32,16,16,16,0,0,0,16,0Z" style="fill:#3f3f3f"/>
	<!-- <path class="superpath" d="M18,9.56a3.33,3.33,0,0,0-2.24,3.35l0,.57-.58-.07a9.36,9.36,0,0,1-5.48-2.7L9,10l-.2.56A3.36,3.36,0,0,0,9.51,14c.46.49.36.56-.44.27a1.36,1.36,0,0,0-.54-.13,4.19,4.19,0,0,0,.41,1.56,3.72,3.72,0,0,0,1.58,1.49l.56.27h-.67c-.64,0-.67,0-.6.26A3.48,3.48,0,0,0,12,19.6l.71.24-.62.37A6.46,6.46,0,0,1,9,21.07a3.41,3.41,0,0,0-.94.09,8.82,8.82,0,0,0,2.22,1,9.72,9.72,0,0,0,7.55-.86,10.12,10.12,0,0,0,3.83-4.52,12,12,0,0,0,.78-3.49c0-.54,0-.6.68-1.24a7.5,7.5,0,0,0,.81-.9c.11-.22.1-.22-.48,0-1,.35-1.12.3-.63-.22a3.39,3.39,0,0,0,.78-1.24s-.17,0-.37.13a6.35,6.35,0,0,1-1,.4l-.62.2L21,10a4.72,4.72,0,0,0-1-.51A3.94,3.94,0,0,0,18,9.56Z" style="fill:#3f3f3f"/><path d="M16,1A15,15,0,1,1,1,16,15,15,0,0,1,16,1m0-1A16,16,0,1,0,32,16,16,16,0,0,0,16,0Z" /> -->
</svg>

