<?xml version="1.0" encoding="utf-8"?>
<!-- Generator: Adobe Illustrator 21.1.0, SVG Export Plug-In . SVG Version: 6.00 Build 0)  -->
<svg version="1.1" id="Layer_1" xmlns="http://www.w3.org/2000/svg" xmlns:xlink="http://www.w3.org/1999/xlink" x="0px" y="0px"
	 viewBox="0 0 205 32" style="enable-background:new 0 0 205 32;" xml:space="preserve">
<g>
	<g>
		<path d="M81,30.9h-2c0-3.4-0.9-5.2-1.8-7c-1-2-2-4-2-7.9v-15c0-0.6,0.4-1,1-1s1,0.4,1,1v15c0,3.4,0.9,5.2,1.8,7.1
			c0.3,0.7,0.7,1.4,1,2.2c0.3-0.8,0.6-1.5,1-2.2c0.9-1.9,1.8-3.6,1.8-7.1l0-15c0-0.6,0.4-1,1-1c0,0,0,0,0,0c0.6,0,1,0.4,1,1l0,15
			c0,3.9-1,6-2,7.9C81.8,25.7,81,27.5,81,30.9z"/>
	</g>
	<g>
		<path d="M96.1,31.9c-0.6,0-1-0.4-1-1v-6.4c-1.6,0.2-2.8,0.7-3.8,1.7c-1.6,1.6-1.7,4-1.7,4.6v0.1l-2,0c0,0,0-0.1,0-0.2l0-26
			c0-2.6,2.1-4.8,4.8-4.8s4.8,2.1,4.8,4.8V23c0,0.1,0.1,0.2,0.1,0.4s0,0.3-0.1,0.4v7.1C97.1,31.4,96.6,31.9,96.1,31.9z M92.3,1.9
			c-1.5,0-2.8,1.2-2.8,2.8l0,20.4c0.1-0.1,0.2-0.2,0.3-0.3c1.3-1.3,3-2.1,5.2-2.3V4.7C95.1,3.2,93.8,1.9,92.3,1.9z"/>
	</g>
	<g>
		<path d="M104.6,31.9c-2.6,0-4.8-2.1-4.8-4.8V0.9c0-0.6,0.4-1,1-1s1,0.4,1,1v26.2c0,1.5,1.2,2.8,2.8,2.8s2.8-1.2,2.8-2.8l0-26.2
			c0-0.6,0.4-1,1-1c0,0,0,0,0,0c0.6,0,1,0.4,1,1l0,26.2C109.3,29.7,107.2,31.9,104.6,31.9z"/>
	</g>
	<g>
		<path d="M117.1,31.9c-2.6,0-4.8-2.1-4.8-4.8V0.9c0-0.6,0.4-1,1-1s1,0.4,1,1v26.2c0,1.5,1.2,2.8,2.8,2.8c0.6,0,1,0.4,1,1
			S117.6,31.9,117.1,31.9z"/>
	</g>
	<g>
		<path d="M121.8,31.9c-0.6,0-1-0.4-1-1V4.8c0-1.5-1.2-2.8-2.8-2.8V0h7.6c0.6,0,1,0.4,1,1s-0.4,1-1,1h-3.7c0.6,0.8,0.9,1.7,0.9,2.8
			v26.2C122.8,31.5,122.3,31.9,121.8,31.9z"/>
	</g>
</g>
<g>
	<path d="M20.9,10c1.2,0,2.2,0.4,3,1.2c0.8,0.8,1.2,1.8,1.2,3v1.6c0,1.2-0.4,2.2-1.2,3c-0.8,0.8-1.8,1.2-3,1.2h-4.5v-1.2l1.1-0.2
		v-7.1l-1.1-0.2V10h1.1H20.9z M19.4,11.6v6.9h1.3c0.7,0,1.3-0.2,1.7-0.7s0.6-1.1,0.6-1.9v-1.7c0-0.8-0.2-1.4-0.6-1.9s-1-0.7-1.7-0.7
		H19.4z"/>
	<path d="M26.9,18.8l0.7-0.1l3-8.7h2l3,8.7l0.7,0.1V20H33v-1.2l0.7-0.1l-0.4-1.4h-3.2l-0.4,1.4l0.7,0.1V20h-3.4V18.8z M30.5,15.8
		h2.3l-1.1-3.5h0L30.5,15.8z"/>
	<path d="M46.2,10v2.7h-1.5l-0.1-1.1h-1.8v7l1.1,0.2V20h-4.1v-1.2l1.1-0.2v-7h-1.8l-0.1,1.1h-1.5V10H46.2z"/>
	<path d="M46.9,18.8l0.7-0.1l3-8.7h2l3,8.7l0.7,0.1V20H53v-1.2l0.7-0.1l-0.4-1.4h-3.2l-0.4,1.4l0.7,0.1V20h-3.4V18.8z M50.5,15.8
		h2.3l-1.1-3.5h0L50.5,15.8z"/>
</g>
<g>
	<path d="M144.9,13.2h-1.5l-0.3-1.4c-0.2-0.1-0.4-0.2-0.8-0.3s-0.7-0.1-1.1-0.1c-0.5,0-1,0.1-1.3,0.3c-0.3,0.2-0.4,0.5-0.4,0.9
		c0,0.3,0.2,0.6,0.5,0.8c0.3,0.2,0.9,0.4,1.6,0.7c1.1,0.3,1.9,0.7,2.5,1.2c0.6,0.5,0.9,1.2,0.9,2c0,0.9-0.3,1.5-1,2
		s-1.6,0.7-2.7,0.7c-0.8,0-1.5-0.1-2.1-0.4c-0.6-0.3-1.2-0.6-1.6-1v-2.1h1.5l0.2,1.4c0.2,0.2,0.5,0.3,0.8,0.4
		c0.3,0.1,0.7,0.2,1.2,0.2c0.5,0,1-0.1,1.2-0.3c0.3-0.2,0.4-0.5,0.4-0.9c0-0.4-0.1-0.7-0.4-0.9c-0.3-0.2-0.7-0.5-1.4-0.7
		c-1.2-0.3-2.1-0.7-2.7-1.2s-0.9-1.1-0.9-1.9c0-0.8,0.3-1.5,1-2c0.7-0.5,1.5-0.8,2.6-0.8c0.8,0,1.5,0.1,2.1,0.3s1.2,0.5,1.6,0.9
		V13.2z"/>
	<path d="M155.4,13.4h-1.5l-0.2-1.3c-0.2-0.2-0.4-0.4-0.7-0.5s-0.7-0.2-1.1-0.2c-0.9,0-1.5,0.3-2,0.9s-0.7,1.4-0.7,2.5v0.3
		c0,1,0.2,1.8,0.7,2.5s1.1,1,2,1c0.4,0,0.8-0.1,1.1-0.2s0.6-0.3,0.8-0.5l0.2-1.3h1.5v2c-0.4,0.5-0.9,0.8-1.5,1.1
		c-0.6,0.3-1.3,0.4-2.1,0.4c-1.3,0-2.4-0.5-3.3-1.4c-0.9-0.9-1.3-2.1-1.3-3.6v-0.3c0-1.4,0.4-2.6,1.3-3.6s1.9-1.4,3.3-1.4
		c0.8,0,1.5,0.1,2.1,0.4c0.6,0.3,1.1,0.7,1.5,1.1V13.4z"/>
	<path d="M157.7,11.2V10h4.1v1.2l-1.1,0.2v7.1l1.1,0.2V20h-4.1v-1.2l1.1-0.2v-7.1L157.7,11.2z"/>
	<path d="M170.4,15.6h-3.4v2.8h3.2l0.1-1.2h1.5V20H164v-1.2l1.1-0.2v-7.1l-1.1-0.2V10h1.1h6.8v2.7h-1.5l-0.1-1.2h-3.2v2.5h3.4V15.6z
		"/>
	<path d="M184.5,10v1.2l-1.1,0.2V20h-2l-4-6.7l0,0v5.3l1.1,0.2V20h-4.1v-1.2l1.1-0.2v-7.1l-1.1-0.2V10h1.1h2l4,6.7l0,0v-5.3
		l-1.1-0.2V10h3.1H184.5z"/>
	<path d="M194.7,13.4h-1.5l-0.2-1.3c-0.2-0.2-0.4-0.4-0.7-0.5c-0.3-0.1-0.7-0.2-1.1-0.2c-0.9,0-1.5,0.3-2,0.9
		c-0.5,0.6-0.7,1.4-0.7,2.5v0.3c0,1,0.2,1.8,0.7,2.5s1.1,1,2,1c0.4,0,0.8-0.1,1.1-0.2c0.3-0.1,0.6-0.3,0.8-0.5l0.2-1.3h1.5v2
		c-0.4,0.5-0.9,0.8-1.5,1.1c-0.6,0.3-1.3,0.4-2.1,0.4c-1.3,0-2.4-0.5-3.3-1.4s-1.3-2.1-1.3-3.6v-0.3c0-1.4,0.4-2.6,1.3-3.6
		s1.9-1.4,3.3-1.4c0.8,0,1.5,0.1,2.1,0.4c0.6,0.3,1.1,0.7,1.5,1.1V13.4z"/>
	<path d="M203.5,15.6h-3.4v2.8h3.2l0.1-1.2h1.5V20H197v-1.2l1.1-0.2v-7.1l-1.1-0.2V10h1.1h6.8v2.7h-1.5l-0.1-1.2h-3.2v2.5h3.4V15.6z
		"/>
</g>
</svg>
